<?xml version="1.0" encoding="UTF-8" standalone="no"?>
<!-- Created with Inkscape (http://www.inkscape.org/) -->

<svg
   xmlns:dc="http://purl.org/dc/elements/1.1/"
   xmlns:cc="http://creativecommons.org/ns#"
   xmlns:rdf="http://www.w3.org/1999/02/22-rdf-syntax-ns#"
   xmlns:svg="http://www.w3.org/2000/svg"
   xmlns="http://www.w3.org/2000/svg"
   xmlns:xlink="http://www.w3.org/1999/xlink"
   xmlns:sodipodi="http://sodipodi.sourceforge.net/DTD/sodipodi-0.dtd"
   xmlns:inkscape="http://www.inkscape.org/namespaces/inkscape"
   version="1.1"
   id="svg2"
   width="2048"
   height="2048"
   viewBox="0 0 2048 2048"
   sodipodi:docname="d-elcx.svg"
   inkscape:version="0.92.3 (2405546, 2018-03-11)"
   inkscape:export-filename="/home/delta/Aircraft/PA28/Models/Liveries/D-ELCX.png"
   inkscape:export-xdpi="96"
   inkscape:export-ydpi="96">
  <metadata
     id="metadata8">
    <rdf:RDF>
      <cc:Work
         rdf:about="">
        <dc:format>image/svg+xml</dc:format>
        <dc:type
           rdf:resource="http://purl.org/dc/dcmitype/StillImage" />
        <dc:title />
      </cc:Work>
    </rdf:RDF>
  </metadata>
  <defs
     id="defs6">
    <inkscape:path-effect
       effect="envelope"
       id="path-effect2723"
       is_visible="true"
       yy="true"
       xx="true"
       bendpath1="m 2158.8346,1975.1076 h 485.9421"
       bendpath2="m 2644.7767,1975.1076 v 100.4568"
       bendpath3="m 2370.165,2073.123 h 485.9421"
       bendpath4="m 2158.8346,1975.1076 v 100.4568"
       bendpath3-nodetypes="cc" />
    <inkscape:path-effect
       effect="bend_path"
       id="path-effect2721"
       is_visible="true"
       bendpath="m 2158.8346,2025.336 h 485.9421"
       prop_scale="1"
       scale_y_rel="false"
       vertical="false" />
    <clipPath
       id="SVGID_2_">
      <use
         height="100%"
         width="100%"
         y="0"
         x="0"
         style="overflow:visible"
         id="use1078"
         overflow="visible"
         xlink:href="#SVGID_1_" />
    </clipPath>
    <clipPath
       id="clipPath1676">
      <use
         height="100%"
         width="100%"
         y="0"
         x="0"
         style="overflow:visible"
         id="use1674"
         overflow="visible"
         xlink:href="#SVGID_1_" />
    </clipPath>
    <clipPath
       id="clipPath1680">
      <use
         height="100%"
         width="100%"
         y="0"
         x="0"
         style="overflow:visible"
         id="use1678"
         overflow="visible"
         xlink:href="#SVGID_1_" />
    </clipPath>
    <clipPath
       id="clipPath1684">
      <use
         height="100%"
         width="100%"
         y="0"
         x="0"
         style="overflow:visible"
         id="use1682"
         overflow="visible"
         xlink:href="#SVGID_1_" />
    </clipPath>
    <clipPath
       id="clipPath1688">
      <use
         height="100%"
         width="100%"
         y="0"
         x="0"
         style="overflow:visible"
         id="use1686"
         overflow="visible"
         xlink:href="#SVGID_1_" />
    </clipPath>
    <clipPath
       id="clipPath1692">
      <use
         height="100%"
         width="100%"
         y="0"
         x="0"
         style="overflow:visible"
         id="use1690"
         overflow="visible"
         xlink:href="#SVGID_1_" />
    </clipPath>
    <clipPath
       id="clipPath1696">
      <use
         height="100%"
         width="100%"
         y="0"
         x="0"
         style="overflow:visible"
         id="use1694"
         overflow="visible"
         xlink:href="#SVGID_1_" />
    </clipPath>
    <clipPath
       id="clipPath1700">
      <use
         height="100%"
         width="100%"
         y="0"
         x="0"
         style="overflow:visible"
         id="use1698"
         overflow="visible"
         xlink:href="#SVGID_1_" />
    </clipPath>
    <rect
       height="32.09"
       width="72.308998"
       y="2.826"
       x="3.0409999"
       id="SVGID_1_" />
  </defs>
  <sodipodi:namedview
     pagecolor="#c3c3c3"
     bordercolor="#666666"
     borderopacity="1"
     objecttolerance="10"
     gridtolerance="10"
     guidetolerance="10"
     inkscape:pageopacity="0"
     inkscape:pageshadow="2"
     inkscape:window-width="1680"
     inkscape:window-height="991"
     id="namedview4"
     showgrid="false"
     inkscape:zoom="1.4142136"
     inkscape:cx="839.54321"
     inkscape:cy="1129.0695"
     inkscape:window-x="0"
     inkscape:window-y="0"
     inkscape:window-maximized="1"
     inkscape:current-layer="svg2"
     showguides="true"
     inkscape:guide-bbox="true"
     inkscape:pagecheckerboard="true">
    <sodipodi:guide
       position="0,0"
       orientation="1,0"
       id="guide994"
       inkscape:locked="false"
       inkscape:label=""
       inkscape:color="rgb(0,0,255)" />
    <sodipodi:guide
       position="2048,2048"
       orientation="1,0"
       id="guide860"
       inkscape:locked="false"
       inkscape:label=""
       inkscape:color="rgb(0,0,255)" />
    <sodipodi:guide
       position="-787.75,1145.375"
       orientation="0,1"
       id="guide944"
       inkscape:locked="false" />
    <sodipodi:guide
       position="-599.375,1099.875"
       orientation="0,1"
       id="guide948"
       inkscape:locked="false" />
    <sodipodi:guide
       position="-705.32561,1108.2081"
       orientation="0,1"
       id="guide970"
       inkscape:locked="false" />
  </sodipodi:namedview>
  <g
     id="g2531">
    <path
       inkscape:connector-curvature="0"
       id="path873"
       d="m 63.579502,1076.759 16.468576,-4.3196 1765.512322,39.9565 17.9535,18.8984 -26.6518,63.7541 -43.1439,41.6167 -248.9118,22.4631 -256.4778,2.1598 -291.81848,-21.9502 -866.92133,-88.7402 -49.675701,-29.1575 z"
       style="fill:#0d003b;fill-opacity:1;fill-rule:evenodd;stroke:none;stroke-width:1px;stroke-linecap:butt;stroke-linejoin:miter;stroke-opacity:1" />
    <path
       sodipodi:nodetypes="ccccc"
       inkscape:connector-curvature="0"
       id="path875"
       d="m 79.373136,1063.1252 1766.055764,42.3423 v 3.126 L 79.444527,1069.5301 Z"
       style="fill:#9f7253;fill-opacity:1;fill-rule:evenodd;stroke:none;stroke-width:1px;stroke-linecap:butt;stroke-linejoin:miter;stroke-opacity:1" />
    <path
       style="fill:#9f7253;fill-opacity:1;fill-rule:evenodd;stroke:none;stroke-width:1px;stroke-linecap:butt;stroke-linejoin:miter;stroke-opacity:1"
       d="M 79.373136,1055.0377 1845.4289,1097.38 v 3.126 L 79.444527,1061.4426 Z"
       id="path877"
       inkscape:connector-curvature="0"
       sodipodi:nodetypes="ccccc" />
    <path
       sodipodi:nodetypes="ccccc"
       inkscape:connector-curvature="0"
       id="path879"
       d="m 79.373136,1046.906 1766.055764,42.3423 v 3.126 L 79.444527,1053.3109 Z"
       style="fill:#9f7253;fill-opacity:1;fill-rule:evenodd;stroke:none;stroke-width:1px;stroke-linecap:butt;stroke-linejoin:miter;stroke-opacity:1" />
  </g>
  <g
     id="g2541"
     transform="matrix(-1,0,0,1,1984.5688,-599.90938)">
    <path
       style="fill:#0d003b;fill-opacity:1;fill-rule:evenodd;stroke:none;stroke-width:1px;stroke-linecap:butt;stroke-linejoin:miter;stroke-opacity:1"
       d="m 63.579502,1076.759 16.468576,-4.3196 1765.512322,39.9565 17.9535,18.8984 -26.6518,63.7541 -43.1439,41.6167 -248.9118,22.4631 -256.4778,2.1598 -291.81848,-21.9502 -866.92133,-88.7402 -49.675701,-29.1575 z"
       id="path2533"
       inkscape:connector-curvature="0" />
    <path
       style="fill:#9f7253;fill-opacity:1;fill-rule:evenodd;stroke:none;stroke-width:1px;stroke-linecap:butt;stroke-linejoin:miter;stroke-opacity:1"
       d="m 79.373136,1063.1252 1766.055764,42.3423 v 3.126 L 79.444527,1069.5301 Z"
       id="path2535"
       inkscape:connector-curvature="0"
       sodipodi:nodetypes="ccccc" />
    <path
       sodipodi:nodetypes="ccccc"
       inkscape:connector-curvature="0"
       id="path2537"
       d="M 79.373136,1055.0377 1845.4289,1097.38 v 3.126 L 79.444527,1061.4426 Z"
       style="fill:#9f7253;fill-opacity:1;fill-rule:evenodd;stroke:none;stroke-width:1px;stroke-linecap:butt;stroke-linejoin:miter;stroke-opacity:1" />
    <path
       style="fill:#9f7253;fill-opacity:1;fill-rule:evenodd;stroke:none;stroke-width:1px;stroke-linecap:butt;stroke-linejoin:miter;stroke-opacity:1"
       d="m 79.373136,1046.906 1766.055764,42.3423 v 3.126 L 79.444527,1053.3109 Z"
       id="path2539"
       inkscape:connector-curvature="0"
       sodipodi:nodetypes="ccccc" />
  </g>
  <path
     id="path997"
     style="fill:#ffffff;fill-opacity:1;fill-rule:evenodd;stroke:none;stroke-width:1.53189325px;stroke-linecap:butt;stroke-linejoin:miter;stroke-opacity:1"
     d="m 1302.0155,513.42248 11.4384,-0.25001 c 4.1648,-16.19398 -5.6158,-23.13302 -13.9155,-23.25433 -13.4705,0.29443 -27.3347,9.66802 -33.1078,27.53818 -5.9201,18.32497 -8.8385,43.09644 12.5498,42.62895 21.3884,-0.4675 28.1885,-23.9561 28.1885,-23.9561 l -10.5588,0.23079 c 0,0 -5.4546,10.69072 -13.3061,10.86234 -7.8513,0.1716 -11.4813,-10.99772 -5.8239,-24.8002 5.6574,-13.80247 12.4399,-19.50351 17.8546,-19.62186 7.9868,-0.17457 6.6808,10.62224 6.6808,10.62224 z m 28.4407,-24.18012 7.3747,33.85376 -26.623,36.28474 13.9752,-0.30546 15.7946,-21.53051 4.5938,21.08487 13.5924,-0.29709 -7.6542,-35.1405 25.658,-34.9708 -13.9752,0.30546 -14.8327,20.21663 -4.3114,-19.79819 z m -92.5267,2.02238 -15.0069,57.26301 28.0892,-0.61396 -3.3694,12.85644 -42.7089,0.9335 18.3762,-70.11944 z m -46.2765,70.72922 -45.7544,1.00007 18.3867,-70.11968 44.4143,-0.97077 -2.963,13.59991 -31.0672,0.67905 -3.702,13.42116 27.8861,-0.60951 -3.5004,13.34901 -27.6154,0.6036 -4.5062,16.8923 32.2385,-0.69665 c 0,0 -3.4064,12.84234 -3.817,12.85132 z m -76.0915,-30.61542 27.6829,-0.60508 -2.8546,11.91286 -27.6828,0.60507 z m -47.571,-36.39939 -19.1374,70.13608 28.5636,-0.62432 c 8.4132,-1.5915 16.8991,-4.66679 26.5418,-31.09664 4.4455,-18.62765 7.0143,-35.75756 -7.7602,-39.03167 z m 8.5921,12.87232 11.3729,-0.24858 c 7.941,2.85545 6.341,12.14458 4.5354,21.57096 -2.9857,9.89452 -6.46,19.26904 -15.6256,22.5533 l -11.7884,-0.28402 z"
     inkscape:connector-curvature="0" />
  <path
     inkscape:connector-curvature="0"
     d="m 849.75677,1120.5406 11.30794,0.3186 c -3.35564,-16.3833 -16.34412,-23.9846 -24.68963,-24.526 -13.31681,-0.3751 -22.81348,8.5326 -20.28628,26.5524 2.59149,18.4786 11.17253,43.7132 32.31685,44.3089 21.14444,0.5957 17.03555,-23.1294 17.03555,-23.1294 l -10.43836,-0.294 c 0,0 -0.48644,10.6797 -8.2484,10.461 -7.76174,-0.2187 -16.57051,-11.8453 -17.32561,-25.7032 -0.75509,-13.858 3.37316,-19.3585 8.72608,-19.2077 7.89573,0.2225 11.60186,11.2194 11.60186,11.2194 z m 17.18348,-23.3461 23.07593,35.0574 -9.75063,35.8402 13.81578,0.3892 5.78295,-21.2668 14.37291,21.8347 13.43735,0.3786 -23.95225,-36.3901 9.39664,-34.5422 -13.81582,-0.3893 -5.43197,19.9689 -13.49373,-20.5021 z m -91.47132,-2.5772 11.58618,57.9183 27.76883,0.7824 2.60115,13.0036 -42.22174,-1.1896 -14.18744,-70.9219 z m -13.39458,70.1448 -45.23254,-1.2744 -14.17709,-70.9216 43.90772,1.2371 3.35207,13.7857 -30.71285,-0.8653 2.53107,13.5655 27.56803,0.7767 2.69891,13.5017 -27.3004,-0.7692 3.33873,17.0817 31.87446,0.906 c 0,0 2.5577,12.9874 2.15179,12.9759 z m -90.20317,-35.1924 27.36716,0.7711 2.67741,12.0626 -27.36703,-0.771 z m -64.40284,-39.6856 13.43495,70.9007 28.23779,0.7956 c 7.66401,-1.2079 14.71203,-3.9325 12.07723,-30.5283 -4.20471,-18.8628 -9.58865,-36.2853 -25.86391,-40.3823 z m 14.55496,13.6209 11.24317,0.3168 c 9.25608,3.3247 11.96895,12.7621 14.54011,22.3297 1.60988,9.9881 2.4904,19.4188 -5.13952,22.3232 l -11.9053,-0.8833 z"
     style="fill:#ffffff;fill-opacity:1;fill-rule:evenodd;stroke:none;stroke-width:1.53189325px;stroke-linecap:butt;stroke-linejoin:miter;stroke-opacity:1"
     id="path1002" />
  <g
     id="g1097"
     transform="matrix(0.80931029,0,0,0.80931029,156.10394,863.67213)">
    <defs
       id="defs1076">
      <rect
         id="rect1769"
         x="3.0409999"
         y="2.826"
         width="72.308998"
         height="32.09" />
    </defs>
    <clipPath
       id="clipPath1706">
      <use
         xlink:href="#SVGID_1_"
         overflow="visible"
         id="use1704"
         style="overflow:visible"
         x="0"
         y="0"
         width="100%"
         height="100%" />
    </clipPath>
    <polyline
       clip-path="url(#SVGID_2_)"
       points="51.139,7.716 46.634,2.826 33.744,17.029 46.646,17.022 51.139,7.716     "
       id="polyline1081"
       style="fill:#ff0000" />
    <polyline
       clip-path="url(#SVGID_2_)"
       points="47.734,17.022 51.768,8.398 59.725,17.055 47.734,17.022  "
       id="polyline1083"
       style="fill:#0047ff" />
    <path
       clip-path="url(#SVGID_2_)"
       d="m 6.255,15.567 h 10.164 c 4.298,0 4.791,2.563 4.359,4.597 -0.684,3.219 -2.784,5.127 -6.108,5.127 H 8.297 L 7.148,30.7 H 3.041 L 6.255,15.567 m 2.627,6.969 h 4.405 c 1.27,0 2.761,-0.043 3.193,-2.075 0.418,-1.971 -0.753,-2.142 -1.917,-2.142 H 9.778 Z"
       id="path1085"
       inkscape:connector-curvature="0" />
    <path
       clip-path="url(#SVGID_2_)"
       d="m 22.881,19.338 h 3.726 L 24.194,30.7 h -3.727 l 2.414,-11.362 m 0.854,-4.025 h 3.727 l -0.558,2.627 h -3.728 z"
       id="path1087"
       inkscape:connector-curvature="0" />
    <path
       clip-path="url(#SVGID_2_)"
       d="m 29.105,19.338 h 3.601 l -0.327,1.546 h 0.042 c 1.742,-1.524 3.059,-1.843 4.626,-1.843 3.688,0 6.165,1.99 5.319,5.974 -0.783,3.692 -4.052,6.109 -7.631,6.109 -2.096,0 -3.498,-0.679 -4.002,-1.696 h -0.042 l -1.167,5.488 h -3.727 l 3.308,-15.578 m 5.178,9.029 c 1.884,0 3.754,-1.124 4.213,-3.289 0.46,-2.16 -0.934,-3.283 -2.817,-3.283 -1.863,0 -3.733,1.123 -4.191,3.283 -0.461,2.165 0.932,3.289 2.795,3.289 z"
       id="path1089"
       inkscape:connector-curvature="0" />
    <path
       clip-path="url(#SVGID_2_)"
       d="m 57.783,27.307 c -1.651,2.694 -4.474,3.817 -7.883,3.817 -4.488,0 -7.109,-1.823 -6.199,-6.109 0.908,-4.279 4.302,-6.103 8.792,-6.103 4.913,0 6.757,2.479 5.848,6.76 l -0.072,0.34 H 47.343 l -0.009,0.043 c -0.23,1.083 0.52,2.737 3.062,2.737 1.503,0 2.67,-0.51 3.405,-1.485 h 3.982 m -2.899,-3.499 0.008,-0.044 c 0.131,-0.612 -0.247,-2.52 -2.979,-2.52 -2.943,0 -4.034,2.245 -4.092,2.52 l -0.01,0.044 z"
       id="path1091"
       inkscape:connector-curvature="0" />
    <path
       clip-path="url(#SVGID_2_)"
       d="m 61.551,19.338 h 3.599 l -0.472,2.223 h 0.042 c 1.725,-1.736 2.95,-2.52 5.066,-2.52 0.425,0 0.928,0.021 1.333,0.105 l -0.742,3.496 c -0.638,-0.191 -1.283,-0.34 -1.982,-0.34 -2.541,0 -4.022,1.292 -4.49,3.498 l -1.04,4.9 h -3.728 l 2.414,-11.362"
       id="path1093"
       inkscape:connector-curvature="0" />
    <path
       clip-path="url(#SVGID_2_)"
       d="m 73.838,17.088 c 0.821,0 1.512,0.648 1.512,1.5 0,0.867 -0.69,1.517 -1.512,1.517 -0.826,0 -1.52,-0.649 -1.52,-1.517 0,-0.852 0.694,-1.5 1.52,-1.5 m 0,2.794 c 0.697,0 1.237,-0.557 1.237,-1.294 0,-0.722 -0.54,-1.278 -1.237,-1.278 -0.706,0 -1.246,0.557 -1.246,1.278 0,0.737 0.54,1.294 1.246,1.294 z M 73.25,17.713 h 0.68 c 0.42,0 0.618,0.165 0.618,0.504 0,0.319 -0.203,0.452 -0.464,0.479 l 0.504,0.779 h -0.294 l -0.48,-0.759 h -0.29 v 0.759 H 73.25 Z m 0.273,0.782 h 0.286 c 0.241,0 0.464,-0.012 0.464,-0.29 0,-0.234 -0.202,-0.271 -0.387,-0.271 h -0.363 z"
       id="path1095"
       inkscape:connector-curvature="0" />
  </g>
  <g
     id="g1808"
     transform="matrix(0.80931029,0,0,0.80931029,1751.4618,269.17213)">
    <defs
       id="defs1786">
      <rect
         height="32.09"
         width="72.308998"
         y="2.826"
         x="3.0409999"
         id="rect1784" />
    </defs>
    <clipPath
       id="clipPath1790">
      <use
         height="100%"
         width="100%"
         y="0"
         x="0"
         style="overflow:visible"
         id="use1788"
         overflow="visible"
         xlink:href="#SVGID_1_" />
    </clipPath>
    <polyline
       style="fill:#ff0000"
       id="polyline1792"
       points="51.139,7.716 46.634,2.826 33.744,17.029 46.646,17.022 51.139,7.716     "
       clip-path="url(#SVGID_2_)" />
    <polyline
       style="fill:#0047ff"
       id="polyline1794"
       points="47.734,17.022 51.768,8.398 59.725,17.055 47.734,17.022  "
       clip-path="url(#SVGID_2_)" />
    <path
       inkscape:connector-curvature="0"
       id="path1796"
       d="m 6.255,15.567 h 10.164 c 4.298,0 4.791,2.563 4.359,4.597 -0.684,3.219 -2.784,5.127 -6.108,5.127 H 8.297 L 7.148,30.7 H 3.041 L 6.255,15.567 m 2.627,6.969 h 4.405 c 1.27,0 2.761,-0.043 3.193,-2.075 0.418,-1.971 -0.753,-2.142 -1.917,-2.142 H 9.778 Z"
       clip-path="url(#SVGID_2_)" />
    <path
       inkscape:connector-curvature="0"
       id="path1798"
       d="m 22.881,19.338 h 3.726 L 24.194,30.7 h -3.727 l 2.414,-11.362 m 0.854,-4.025 h 3.727 l -0.558,2.627 h -3.728 z"
       clip-path="url(#SVGID_2_)" />
    <path
       inkscape:connector-curvature="0"
       id="path1800"
       d="m 29.105,19.338 h 3.601 l -0.327,1.546 h 0.042 c 1.742,-1.524 3.059,-1.843 4.626,-1.843 3.688,0 6.165,1.99 5.319,5.974 -0.783,3.692 -4.052,6.109 -7.631,6.109 -2.096,0 -3.498,-0.679 -4.002,-1.696 h -0.042 l -1.167,5.488 h -3.727 l 3.308,-15.578 m 5.178,9.029 c 1.884,0 3.754,-1.124 4.213,-3.289 0.46,-2.16 -0.934,-3.283 -2.817,-3.283 -1.863,0 -3.733,1.123 -4.191,3.283 -0.461,2.165 0.932,3.289 2.795,3.289 z"
       clip-path="url(#SVGID_2_)" />
    <path
       inkscape:connector-curvature="0"
       id="path1802"
       d="m 57.783,27.307 c -1.651,2.694 -4.474,3.817 -7.883,3.817 -4.488,0 -7.109,-1.823 -6.199,-6.109 0.908,-4.279 4.302,-6.103 8.792,-6.103 4.913,0 6.757,2.479 5.848,6.76 l -0.072,0.34 H 47.343 l -0.009,0.043 c -0.23,1.083 0.52,2.737 3.062,2.737 1.503,0 2.67,-0.51 3.405,-1.485 h 3.982 m -2.899,-3.499 0.008,-0.044 c 0.131,-0.612 -0.247,-2.52 -2.979,-2.52 -2.943,0 -4.034,2.245 -4.092,2.52 l -0.01,0.044 z"
       clip-path="url(#SVGID_2_)" />
    <path
       inkscape:connector-curvature="0"
       id="path1804"
       d="m 61.551,19.338 h 3.599 l -0.472,2.223 h 0.042 c 1.725,-1.736 2.95,-2.52 5.066,-2.52 0.425,0 0.928,0.021 1.333,0.105 l -0.742,3.496 c -0.638,-0.191 -1.283,-0.34 -1.982,-0.34 -2.541,0 -4.022,1.292 -4.49,3.498 l -1.04,4.9 h -3.728 l 2.414,-11.362"
       clip-path="url(#SVGID_2_)" />
    <path
       inkscape:connector-curvature="0"
       id="path1806"
       d="m 73.838,17.088 c 0.821,0 1.512,0.648 1.512,1.5 0,0.867 -0.69,1.517 -1.512,1.517 -0.826,0 -1.52,-0.649 -1.52,-1.517 0,-0.852 0.694,-1.5 1.52,-1.5 m 0,2.794 c 0.697,0 1.237,-0.557 1.237,-1.294 0,-0.722 -0.54,-1.278 -1.237,-1.278 -0.706,0 -1.246,0.557 -1.246,1.278 0,0.737 0.54,1.294 1.246,1.294 z M 73.25,17.713 h 0.68 c 0.42,0 0.618,0.165 0.618,0.504 0,0.319 -0.203,0.452 -0.464,0.479 l 0.504,0.779 h -0.294 l -0.48,-0.759 h -0.29 v 0.759 H 73.25 Z m 0.273,0.782 h 0.286 c 0.241,0 0.464,-0.012 0.464,-0.29 0,-0.234 -0.202,-0.271 -0.387,-0.271 h -0.363 z"
       clip-path="url(#SVGID_2_)" />
  </g>
  <g
     id="g2521"
     transform="matrix(-1,0,0,1,1979.5442,-598.09711)">
    <path
       inkscape:connector-curvature="0"
       id="path2513"
       d="M 296.45452,814.63052 0,809.15045 V 631.66512 L 269,650.25 Z"
       style="fill:#0d003b;fill-opacity:1;fill-rule:evenodd;stroke:none;stroke-width:1;stroke-linecap:butt;stroke-linejoin:miter;stroke-miterlimit:4;stroke-dasharray:none;stroke-opacity:1" />
    <path
       style="fill:none;fill-opacity:1;fill-rule:evenodd;stroke:#9f7253;stroke-width:6.30000019;stroke-linecap:butt;stroke-linejoin:miter;stroke-miterlimit:4;stroke-dasharray:none;stroke-opacity:1"
       d="M 296.45452,819.75552 0,814.27545"
       id="path2515"
       inkscape:connector-curvature="0" />
    <path
       style="fill:none;fill-opacity:1;fill-rule:evenodd;stroke:#9f7253;stroke-width:6.30000019;stroke-linecap:butt;stroke-linejoin:miter;stroke-miterlimit:4;stroke-dasharray:none;stroke-opacity:1"
       d="M 296.45452,828.00552 0,822.52545"
       id="path2517"
       inkscape:connector-curvature="0" />
    <path
       inkscape:connector-curvature="0"
       id="path2519"
       d="M 296.45452,836.25552 0,830.77545"
       style="fill:none;fill-opacity:1;fill-rule:evenodd;stroke:#9f7253;stroke-width:6.30000019;stroke-linecap:butt;stroke-linejoin:miter;stroke-miterlimit:4;stroke-dasharray:none;stroke-opacity:1" />
  </g>
  <g
     transform="matrix(10.16637,0,0,10.16637,1795.7878,154.41422)"
     id="g2429">
    <rect
       style="fill:#000000;stroke-width:0.57735026"
       y="0"
       x="0"
       height="1"
       width="5"
       id="black_stripe" />
    <rect
       style="fill:#ff0000;stroke-width:0.70710677"
       x="0"
       y="1"
       height="1"
       width="5"
       id="red_stripe" />
    <rect
       y="2"
       height="1"
       width="5"
       id="gold_stripe"
       x="0"
       style="fill:#cfb53b" />
  </g>
  <g
     id="g2511">
    <path
       style="fill:#0d003b;fill-opacity:1;fill-rule:evenodd;stroke:none;stroke-width:1;stroke-linecap:butt;stroke-linejoin:miter;stroke-miterlimit:4;stroke-dasharray:none;stroke-opacity:1"
       d="M 296.45452,814.63052 0,809.15045 V 631.66512 L 269,650.25 Z"
       id="path2505"
       inkscape:connector-curvature="0" />
    <path
       inkscape:connector-curvature="0"
       id="path2463"
       d="M 296.45452,819.75552 0,814.27545"
       style="fill:none;fill-opacity:1;fill-rule:evenodd;stroke:#9f7253;stroke-width:6.30000019;stroke-linecap:butt;stroke-linejoin:miter;stroke-miterlimit:4;stroke-dasharray:none;stroke-opacity:1" />
    <path
       inkscape:connector-curvature="0"
       id="path2503"
       d="M 296.45452,828.00552 0,822.52545"
       style="fill:none;fill-opacity:1;fill-rule:evenodd;stroke:#9f7253;stroke-width:6.30000019;stroke-linecap:butt;stroke-linejoin:miter;stroke-miterlimit:4;stroke-dasharray:none;stroke-opacity:1" />
    <path
       style="fill:none;fill-opacity:1;fill-rule:evenodd;stroke:#9f7253;stroke-width:6.30000019;stroke-linecap:butt;stroke-linejoin:miter;stroke-miterlimit:4;stroke-dasharray:none;stroke-opacity:1"
       d="M 296.45452,836.25552 0,830.77545"
       id="path2501"
       inkscape:connector-curvature="0" />
  </g>
  <g
     id="g2461"
     transform="matrix(10.16637,0,0,10.16637,126.61621,747.41422)">
    <rect
       id="rect2455"
       width="5"
       height="1"
       x="0"
       y="0"
       style="fill:#000000;stroke-width:0.57735026" />
    <rect
       id="rect2457"
       width="5"
       height="1"
       y="1"
       x="0"
       style="fill:#ff0000;stroke-width:0.70710677" />
    <rect
       style="fill:#cfb53b"
       x="0"
       id="rect2459"
       width="5"
       height="1"
       y="2" />
  </g>
  <path
     style="fill:#0d003b;fill-rule:evenodd;stroke:none;stroke-width:1px;stroke-linecap:butt;stroke-linejoin:miter;stroke-opacity:1;fill-opacity:1"
     d="m 1320.8755,114.06296 h 351.432 c 0,0 18.3848,173.94827 -165.463,173.94827 -183.8477,0 -185.969,-173.94827 -185.969,-173.94827 z"
     id="path2523"
     inkscape:connector-curvature="0" />
  <path
     style="fill:#0d003b;fill-opacity:1;fill-rule:evenodd;stroke:#000000;stroke-width:1px;stroke-linecap:butt;stroke-linejoin:miter;stroke-opacity:1"
     d="m 464,1244 552,74 v 76 l -366,42 -404,8 H 0 v -204 z"
     id="path2525"
     inkscape:connector-curvature="0"
     sodipodi:nodetypes="cccccccc" />
</svg>
