<?xml version="1.0" encoding="UTF-8" standalone="no"?>
<!-- Created with Inkscape (http://www.inkscape.org/) -->

<svg
   xmlns:dc="http://purl.org/dc/elements/1.1/"
   xmlns:cc="http://creativecommons.org/ns#"
   xmlns:rdf="http://www.w3.org/1999/02/22-rdf-syntax-ns#"
   xmlns:svg="http://www.w3.org/2000/svg"
   xmlns="http://www.w3.org/2000/svg"
   xmlns:sodipodi="http://sodipodi.sourceforge.net/DTD/sodipodi-0.dtd"
   xmlns:inkscape="http://www.inkscape.org/namespaces/inkscape"
   version="1.1"
   id="svg2"
   width="2730.6667"
   height="2730.6667"
   viewBox="0 0 2730.6667 2730.6667"
   sodipodi:docname="n2436y.svg"
   inkscape:version="0.92.3 (2405546, 2018-03-11)"
   inkscape:export-filename="/home/delta/WarriorII-dev/Liveries/N2436Y.png"
   inkscape:export-xdpi="72"
   inkscape:export-ydpi="72">
  <metadata
     id="metadata8">
    <rdf:RDF>
      <cc:Work
         rdf:about="">
        <dc:format>image/svg+xml</dc:format>
        <dc:type
           rdf:resource="http://purl.org/dc/dcmitype/StillImage" />
        <dc:title />
      </cc:Work>
    </rdf:RDF>
  </metadata>
  <defs
     id="defs6" />
  <sodipodi:namedview
     pagecolor="#c3c3c3"
     bordercolor="#666666"
     borderopacity="1"
     objecttolerance="10"
     gridtolerance="10"
     guidetolerance="10"
     inkscape:pageopacity="0"
     inkscape:pageshadow="2"
     inkscape:window-width="1680"
     inkscape:window-height="991"
     id="namedview4"
     showgrid="false"
     inkscape:zoom="0.16369628"
     inkscape:cx="4.8773768"
     inkscape:cy="616.79043"
     inkscape:window-x="0"
     inkscape:window-y="0"
     inkscape:window-maximized="1"
     inkscape:current-layer="svg2"
     showguides="false" />
  <g
     id="g975">
    <path
       sodipodi:nodetypes="ccccc"
       inkscape:connector-curvature="0"
       id="path866"
       d="m 2456.5215,1458.1443 c -785.683,-32.5652 -1570.54514,-45.3087 -2347.90817,-55.3188 l -1.16547,19.3279 c 780.96758,8.4462 1568.64174,21.4068 2350.46094,47.6602 z"
       style="fill:#9e2e47;fill-opacity:1;fill-rule:evenodd;stroke:none;stroke-width:1.07878959px;stroke-linecap:butt;stroke-linejoin:miter;stroke-opacity:1" />
    <path
       style="fill:#3aa9ea;fill-opacity:1;fill-rule:evenodd;stroke:none;stroke-width:1.07878959px;stroke-linecap:butt;stroke-linejoin:miter;stroke-opacity:1"
       d="M 2458.2058,1477.3364 C 1675.8238,1450.729 888.36203,1437.5295 107.60277,1428.7547 l -1.16547,19.3279 c 780.95437,6.9818 1568.8635,17.8122 2352.3338,39.5796 z"
       id="path868"
       inkscape:connector-curvature="0"
       sodipodi:nodetypes="ccccc" />
    <path
       inkscape:connector-curvature="0"
       id="path870"
       d="m 352.4067,1159.8684 -188.94153,-87.9031 7.43798,32.158 209.58861,93.3432 z"
       style="fill:#9e2e47;fill-opacity:1;fill-rule:evenodd;stroke:none;stroke-width:1.07227874px;stroke-linecap:butt;stroke-linejoin:miter;stroke-opacity:1" />
    <path
       inkscape:connector-curvature="0"
       id="path872"
       d="m 389.876,1209.4207 -215.30635,-95.3044 8.57251,32.7817 c 0,0 240.77701,110.7824 238.62069,106.6425 -2.15632,-4.14 -31.88685,-44.1198 -31.88685,-44.1198 z"
       style="fill:#3aa9ea;fill-opacity:1;fill-rule:evenodd;stroke:none;stroke-width:1.07227874px;stroke-linecap:butt;stroke-linejoin:miter;stroke-opacity:1" />
    <path
       inkscape:connector-curvature="0"
       id="path874"
       d="m 428.82528,1280.469 c 0,0 6.21379,-10.7668 -7.3781,-18.829 -13.59188,-8.0622 -234.68361,-103.5919 -234.68361,-103.5919 l 6.34855,30.3772 183.96012,81.9149 -163.41928,0.5839 7.70856,25.2155 c 0,0 187.16203,-0.2381 195.26156,0.078 8.09964,0.3157 12.2022,-15.7481 12.2022,-15.7481 z"
       style="fill:#2f699e;fill-opacity:1;fill-rule:evenodd;stroke:none;stroke-width:1.07227874px;stroke-linecap:butt;stroke-linejoin:miter;stroke-opacity:1" />
    <path
       inkscape:connector-curvature="0"
       id="path876"
       d="m 199.33304,1207.2092 4.39516,21.0304 61.34787,1.8116 -49.45368,-24.5248 z"
       style="fill:#9e2e47;fill-opacity:1;fill-rule:evenodd;stroke:none;stroke-width:1.07227874px;stroke-linecap:butt;stroke-linejoin:miter;stroke-opacity:1" />
    <path
       inkscape:connector-curvature="0"
       id="path878"
       d="m 207.30441,1240.5468 5.46205,23.3897 c 0,0 133.3351,-1.7565 131.0435,-2.4251 -2.2916,-0.6689 -61.60313,-24.9984 -61.60313,-24.9984 z"
       style="fill:#3aa9ea;fill-opacity:1;fill-rule:evenodd;stroke:none;stroke-width:1.07227874px;stroke-linecap:butt;stroke-linejoin:miter;stroke-opacity:1" />
    <path
       id="path898"
       style="fill:#2f699e;fill-opacity:1;fill-rule:evenodd;stroke:none;stroke-width:1.07878959px;stroke-linecap:butt;stroke-linejoin:miter;stroke-opacity:1"
       d="m 1168.5623,1469.992 70.1726,67.5498 20.0067,34.1899 16.3268,0.6363 -21.3002,-37.5552 2.4613,-63.1528 -16.5885,-0.6465 v 41.2427 c 0,0 -1.2741,5.2285 -4.596,2.0068 -8.0044,-7.7628 -45.1267,-43.6847 -45.1267,-43.6847 z m -42.5436,59.5504 c 0,0 -9.8215,1.4065 -5.6128,9.3997 4.2087,7.9933 6.5305,11.7149 6.5305,11.7149 0,0 0.9694,2.0171 3.1272,4.0806 2.1577,2.0634 5.5038,4.1732 10.2572,4.3585 4.7534,0.1852 12.0048,0.4678 18.0678,0.7041 6.0631,0.2363 10.9378,0.4263 10.9378,0.4263 0,0 2.2544,-0.5024 4.0679,-1.842 1.8136,-1.3397 3.1862,-3.5167 1.4227,-6.8661 -3.5271,-6.6988 -7.6795,-13.8969 -7.6795,-13.8969 0,0 -1.6233,-6.8771 -9.6412,-7.1896 -8.0179,-0.3125 -31.4776,-0.8895 -31.4776,-0.8895 z m -37.0543,-61.0233 c 0,0 -20.1764,-0.2042 -8.3606,22.2368 9.8274,18.6647 36.8422,69.9718 36.8422,69.9718 0,0 6.0549,10.9796 21.7704,11.5921 15.7154,0.6125 42.4834,1.4476 43.654,1.7014 1.1707,0.2537 15.7132,-4.2763 10.1937,-14.7592 -5.5194,-10.4827 -23.0095,-43.7004 -23.0095,-43.7004 l -61.7598,-2.407 -9.6773,-18.3795 c 0,0 -4.4132,-10.7172 5.7845,-10.3197 10.1976,0.3974 31.7336,1.2368 31.7336,1.2368 0,0 7.618,-0.078 10.465,7.7437 3.1171,5.9203 5.1694,9.818 5.1694,9.818 l 15.1814,0.5917 -13.4597,-25.5633 c 0,0 -4.1728,-8.4323 -13.9801,-8.8146 -15.2091,-0.5927 -50.5472,-0.9486 -50.5472,-0.9486 z m -100.41602,32.2024 c -0.41389,-0.5992 -8.08474,-15.3549 -8.08474,-15.3549 0,0 -3.53519,-15.5566 10.2886,-15.0178 13.82376,0.5388 48.31046,1.8828 48.31046,1.8828 0,0 9.9913,-0.2793 14.2679,7.8428 4.2764,8.1221 39.2469,74.5391 39.2469,74.5391 0,0 8.5708,17.9562 -10.8445,17.1995 -19.4153,-0.7567 -45.0256,-1.7548 -45.0256,-1.7548 0,0 -9.3743,-0.1723 -13.8972,-8.7624 -4.5229,-8.59 -12.0632,-22.9106 -12.0632,-22.9106 l 16.6766,0.6499 8.6452,16.4191 30.6837,1.3968 c 0,0 8.4316,-1.9535 5.1551,-8.1761 -3.2763,-6.2225 -11.7615,-22.3378 -11.7615,-22.3378 l -18.4927,-0.9217 -5.9045,-11.2139 13.3541,0.6097 c 0,0 7.7119,-0.4016 3.4627,-8.4719 -3.0189,-5.7336 -9.7002,-18.4229 -9.7002,-18.4229 0,0 -3.4303,-3.9155 -10.2274,-4.1804 -6.7971,-0.2649 -30.4078,-1.2744 -30.4078,-1.2744 0,0 -9.24768,1.3692 -4.35658,10.6586 3.43258,6.5192 4.45868,8.468 4.45868,8.468 z m -45.66908,-12.62 -13.89257,49.7469 43.30663,1.6878 z m -7.95332,-18.0345 -24.04852,67.0756 9.61486,18.261 62.12617,2.4213 8.29052,15.7457 17.03849,0.664 -13.29918,-17.165 13.53548,0.5275 -10.16496,-19.3055 -11.3243,-0.4413 -35.69999,-67.8027 z m -141.84394,27.6538 -9.29542,-17.6542 c 0,0 -3.09289,-13.1323 11.40798,-12.5671 14.50076,0.5651 48.0441,1.8724 48.0441,1.8724 0,0 9.52375,0.5158 13.85024,8.7329 4.32649,8.217 18.75237,35.615 18.75237,35.615 0,0 6.97428,13.6729 -8.04811,13.0874 -15.0225,-0.5855 -35.18962,-1.3714 -35.18962,-1.3714 0,0 -6.76096,1.1305 -2.00688,9.5356 4.69935,8.3084 6.86037,12.6828 6.86037,12.6828 0,0 4.33339,6.163 10.23684,6.4544 4.0135,0.1564 49.49246,1.9289 49.49246,1.9289 0,0 12.90338,14.873 11.35888,14.5382 -1.5445,-0.3349 -65.87633,-2.5675 -65.87633,-2.5675 0,0 -12.59336,-1.5721 -17.61264,-11.1049 -5.01939,-9.5328 -15.32171,-29.0995 -15.32171,-29.0995 0,0 -6.74639,-17.1573 10.39659,-16.4892 17.14308,0.6682 31.33128,0.708 31.33128,0.708 0,0 7.66121,0.3902 1.9646,-10.2202 -3.9785,-7.556 -9.80084,-18.614 -9.80084,-18.614 l -35.78877,-1.1618 c 0,0 -9.97668,0.7511 -6.56451,7.2315 3.41205,6.4805 4.87674,9.2623 4.87674,9.2623 z m -59.75398,68.3634 -53.05533,-100.7643 15.32703,0.5973 76.21363,64.5689 -29.69675,-62.9873 15.22828,0.5935 54.14839,102.8403 -16.08764,-0.627 -79.14382,-63.4188 33.90869,60.6782 z"
       inkscape:connector-curvature="0"
       sodipodi:nodetypes="ccccccccccccccssscsscsccccscscccccccccccccscccscccccccccccscsccccccccccccccccccccccccccscscccccccccccccccscccccccccs" />
    <path
       inkscape:connector-curvature="0"
       id="path963"
       d="m 2400.4058,1393.7778 51.7345,11.8359 -3.0544,44.6712 -8.9724,67.3885 -5.7271,22.1447"
       style="fill:none;fill-rule:evenodd;stroke:#000000;stroke-width:1px;stroke-linecap:butt;stroke-linejoin:miter;stroke-opacity:1" />
  </g>
  <g
     id="g997"
     transform="matrix(-1,0,0,1,2643.1813,-804.51337)">
    <path
       style="fill:#9e2e47;fill-opacity:1;fill-rule:evenodd;stroke:none;stroke-width:1.07878959px;stroke-linecap:butt;stroke-linejoin:miter;stroke-opacity:1"
       d="m 2456.5215,1458.1443 c -785.683,-32.5652 -1570.54514,-45.3087 -2347.90817,-55.3188 l -1.16547,19.3279 c 780.96758,8.4462 1568.64174,21.4068 2350.46094,47.6602 z"
       id="path977"
       inkscape:connector-curvature="0"
       sodipodi:nodetypes="ccccc" />
    <path
       sodipodi:nodetypes="ccccc"
       inkscape:connector-curvature="0"
       id="path979"
       d="M 2458.2058,1477.3364 C 1675.8238,1450.729 888.36203,1437.5295 107.60277,1428.7547 l -1.16547,19.3279 c 780.95437,6.9818 1568.8635,17.8122 2352.3338,39.5796 z"
       style="fill:#3aa9ea;fill-opacity:1;fill-rule:evenodd;stroke:none;stroke-width:1.07878959px;stroke-linecap:butt;stroke-linejoin:miter;stroke-opacity:1" />
    <path
       style="fill:#9e2e47;fill-opacity:1;fill-rule:evenodd;stroke:none;stroke-width:1.07227874px;stroke-linecap:butt;stroke-linejoin:miter;stroke-opacity:1"
       d="m 352.4067,1159.8684 -188.94153,-87.9031 7.43798,32.158 209.58861,93.3432 z"
       id="path981"
       inkscape:connector-curvature="0" />
    <path
       style="fill:#3aa9ea;fill-opacity:1;fill-rule:evenodd;stroke:none;stroke-width:1.07227874px;stroke-linecap:butt;stroke-linejoin:miter;stroke-opacity:1"
       d="m 389.876,1209.4207 -215.30635,-95.3044 8.57251,32.7817 c 0,0 240.77701,110.7824 238.62069,106.6425 -2.15632,-4.14 -31.88685,-44.1198 -31.88685,-44.1198 z"
       id="path983"
       inkscape:connector-curvature="0" />
    <path
       style="fill:#2f699e;fill-opacity:1;fill-rule:evenodd;stroke:none;stroke-width:1.07227874px;stroke-linecap:butt;stroke-linejoin:miter;stroke-opacity:1"
       d="m 428.82528,1280.469 c 0,0 6.21379,-10.7668 -7.3781,-18.829 -13.59188,-8.0622 -234.68361,-103.5919 -234.68361,-103.5919 l 6.34855,30.3772 183.96012,81.9149 -163.41928,0.5839 7.70856,25.2155 c 0,0 187.16203,-0.2381 195.26156,0.078 8.09964,0.3157 12.2022,-15.7481 12.2022,-15.7481 z"
       id="path985"
       inkscape:connector-curvature="0" />
    <path
       style="fill:#9e2e47;fill-opacity:1;fill-rule:evenodd;stroke:none;stroke-width:1.07227874px;stroke-linecap:butt;stroke-linejoin:miter;stroke-opacity:1"
       d="m 199.33304,1207.2092 4.39516,21.0304 61.34787,1.8116 -49.45368,-24.5248 z"
       id="path987"
       inkscape:connector-curvature="0" />
    <path
       style="fill:#3aa9ea;fill-opacity:1;fill-rule:evenodd;stroke:none;stroke-width:1.07227874px;stroke-linecap:butt;stroke-linejoin:miter;stroke-opacity:1"
       d="m 207.30441,1240.5468 5.46205,23.3897 c 0,0 133.3351,-1.7565 131.0435,-2.4251 -2.2916,-0.6689 -61.60313,-24.9984 -61.60313,-24.9984 z"
       id="path989"
       inkscape:connector-curvature="0" />
    <path
       sodipodi:nodetypes="ccccccccccccccssscsscsccccscscccccccccccccscccscccccccccccscsccccccccccccccccccccccccccscscccccccccccccccscccccccccs"
       inkscape:connector-curvature="0"
       d="m 788.55882,1459.7899 -72.40202,65.1546 -21.14386,33.4985 -16.33896,0.088 22.54967,-36.8186 -0.33858,-63.1998 16.60085,-0.089 -1.38536,41.2194 c 0,0 1.09776,5.2684 4.526,2.1601 8.26064,-7.4896 46.56862,-42.1443 46.56862,-42.1443 z m 40.51927,60.9459 c 0,0 9.76872,1.7356 5.2939,9.5829 -4.47483,7.8474 -6.92033,11.4889 -6.92033,11.4889 0,0 -1.0366,1.9834 -3.2625,3.9733 -2.22579,1.9897 -5.64087,3.986 -10.39782,4.0115 -4.75693,0.025 -12.01373,0.064 -18.08125,0.097 -6.06762,0.033 -10.94595,0.059 -10.94595,0.059 0,0 -2.23625,-0.5778 -4.00373,-1.9776 -1.76757,-1.3998 -3.06627,-3.6217 -1.19126,-6.91 3.75012,-6.5765 8.14197,-13.6311 8.14197,-13.6311 0,0 1.85339,-6.8187 9.87726,-6.8617 8.02387,-0.043 31.48971,0.1684 31.48971,0.1684 z m 39.08319,-59.7442 c 0,0 20.17187,0.4736 7.60894,22.5051 -10.44881,18.324 -39.17179,68.6947 -39.17179,68.6947 0,0 -6.42029,10.77 -22.1475,10.8543 -15.7271,0.084 -42.50805,0.02 -43.68651,0.2341 -1.17857,0.2142 -15.56069,-4.8017 -9.69218,-15.0933 5.8684,-10.2914 24.46442,-42.9028 24.46442,-42.9028 l 61.8058,-0.3311 10.28922,-18.0441 c 0,0 4.7707,-10.5629 -5.43459,-10.5082 -10.2052,0.055 -31.75724,0.1702 -31.75724,0.1702 0,0 -7.61108,-0.3339 -10.71921,7.3878 -3.31421,5.8122 -5.49627,9.6388 -5.49627,9.6388 l -15.19271,0.081 14.31078,-25.0967 c 0,0 4.45369,-8.2874 14.2683,-8.3401 15.22043,-0.081 50.55054,0.7499 50.55054,0.7499 z m 99.27766,35.5572 c 0.43379,-0.5849 8.59596,-15.0746 8.59596,-15.0746 0,0 4.05574,-15.4291 -9.77834,-15.355 -13.83406,0.074 -48.34644,0.259 -48.34644,0.259 0,0 -9.97628,-0.6148 -14.5233,7.3591 -4.54681,7.9739 -41.72855,73.1787 -41.72855,73.1787 0,0 -9.16912,17.6582 10.26065,17.5541 19.42976,-0.1041 45.05913,-0.2414 45.05913,-0.2414 0,0 9.3748,0.1427 14.18369,-8.2906 4.80889,-8.4333 12.82597,-22.4925 12.82597,-22.4925 l -16.68902,0.089 -9.19184,16.1194 -30.71331,0.3653 c 0,0 -8.36122,-2.2356 -4.87755,-8.3446 3.48347,-6.109 12.5052,-21.9301 12.5052,-21.9301 l 18.51322,-0.3 6.27785,-11.0093 -13.36704,0.1608 c 0,0 -7.69406,-0.6604 -3.17618,-8.5834 3.20979,-5.629 10.31356,-18.0867 10.31356,-18.0867 0,0 3.55989,-3.7981 10.36205,-3.8345 6.80216,-0.036 30.43345,-0.2523 30.43345,-0.2523 0,0 9.19647,1.6791 3.9961,10.799 -3.64963,6.4002 -4.74061,8.3134 -4.74061,8.3134 z m 46.06726,-11.0788 12.2137,50.1855 -43.33891,0.2321 z m 8.5546,-17.7572 21.7818,67.8456 -10.2228,17.9277 -62.17244,0.3331 -8.81475,15.4583 -17.05117,0.091 13.86825,-16.7086 -13.54556,0.073 10.8077,-18.9532 11.33273,-0.061 37.95734,-66.5652 z m 140.835,32.4028 9.8832,-17.332 c 0,0 3.5322,-13.021 -10.9795,-12.9432 -14.5115,0.078 -48.0798,0.2575 -48.0798,0.2575 0,0 -9.5357,0.1956 -14.1358,8.2628 -4.6001,8.067 -19.9381,34.965 -19.9381,34.965 0,0 -7.4296,13.4309 7.6039,13.3503 15.0337,-0.081 35.2159,-0.1886 35.2159,-0.1886 0,0 6.7191,1.357 1.6854,9.5976 -4.9758,8.1459 -7.2825,12.4452 -7.2825,12.4452 0,0 -4.538,6.014 -10.4479,6.1069 -4.0165,0.022 -49.5293,0.2654 -49.5293,0.2654 0,0 -13.3957,14.4312 -11.8408,14.1484 1.5549,-0.2828 65.9254,-0.3532 65.9254,-0.3532 0,0 12.6391,-1.1482 17.9757,-10.507 5.3368,-9.3588 16.2905,-28.5684 16.2905,-28.5684 0,0 7.3189,-16.921 -9.8368,-16.8292 -17.1559,0.092 -31.3374,-0.3448 -31.3374,-0.3448 0,0 -7.67,0.1326 -1.6202,-10.2804 4.2301,-7.4181 10.4206,-18.2743 10.4206,-18.2743 l 35.8076,0.041 c 0,0 9.9458,1.0858 6.3179,7.4479 -3.6278,6.3623 -5.1851,9.0933 -5.1851,9.0933 z m 57.4239,70.332 56.4101,-98.9253 -15.3385,0.082 -78.3395,61.9724 31.7958,-61.9542 -15.2396,0.082 -57.5723,100.9634 16.0996,-0.086 81.2294,-60.7246 -35.9277,59.505 z"
       style="fill:#2f699e;fill-opacity:1;fill-rule:evenodd;stroke:none;stroke-width:1.07878959px;stroke-linecap:butt;stroke-linejoin:miter;stroke-opacity:1"
       id="path991" />
  </g>
</svg>
