<?xml version="1.0" encoding="UTF-8" standalone="no"?>
<!-- Created with Inkscape (http://www.inkscape.org/) -->

<svg
   xmlns:dc="http://purl.org/dc/elements/1.1/"
   xmlns:cc="http://creativecommons.org/ns#"
   xmlns:rdf="http://www.w3.org/1999/02/22-rdf-syntax-ns#"
   xmlns:svg="http://www.w3.org/2000/svg"
   xmlns="http://www.w3.org/2000/svg"
   xmlns:sodipodi="http://sodipodi.sourceforge.net/DTD/sodipodi-0.dtd"
   xmlns:inkscape="http://www.inkscape.org/namespaces/inkscape"
   width="320"
   height="240"
   viewBox="0 0 320 240"
   version="1.1"
   id="svg8"
   inkscape:version="0.92.3 (2405546, 2018-03-11)"
   sodipodi:docname="G5-start.svg">
  <defs
     id="defs2" />
  <sodipodi:namedview
     id="base"
     pagecolor="#ffffff"
     bordercolor="#666666"
     borderopacity="1.0"
     inkscape:pageopacity="0.0"
     inkscape:pageshadow="2"
     inkscape:zoom="0.70000002"
     inkscape:cx="104.84695"
     inkscape:cy="132.40976"
     inkscape:document-units="px"
     inkscape:current-layer="layer1"
     showgrid="false"
     units="px"
     inkscape:pagecheckerboard="true"
     showguides="true"
     inkscape:guide-bbox="true"
     inkscape:window-width="1600"
     inkscape:window-height="1135"
     inkscape:window-x="0"
     inkscape:window-y="0"
     inkscape:window-maximized="1">
    <sodipodi:guide
       position="0,0"
       orientation="1,0"
       id="guide815"
       inkscape:locked="false"
       inkscape:label=""
       inkscape:color="rgb(0,0,255)" />
    <sodipodi:guide
       position="320,240"
       orientation="1,0"
       id="guide817"
       inkscape:locked="false"
       inkscape:label=""
       inkscape:color="rgb(0,0,255)" />
    <sodipodi:guide
       position="-0.86809987,-0.64798448"
       orientation="0,1"
       id="guide855"
       inkscape:locked="false" />
    <sodipodi:guide
       position="321.37445,239.88433"
       orientation="0,1"
       id="guide857"
       inkscape:locked="false" />
  </sodipodi:namedview>
  <metadata
     id="metadata5">
    <rdf:RDF>
      <cc:Work
         rdf:about="">
        <dc:format>image/svg+xml</dc:format>
        <dc:type
           rdf:resource="http://purl.org/dc/dcmitype/StillImage" />
        <dc:title />
      </cc:Work>
    </rdf:RDF>
  </metadata>
  <g
     inkscape:label="Ebene 1"
     inkscape:groupmode="layer"
     id="layer1"
     transform="translate(0,-233.49998)">
    <text
       xml:space="preserve"
       style="font-style:normal;font-variant:normal;font-weight:bold;font-stretch:normal;font-size:24.27083397px;line-height:100%;font-family:'Liberation Sans';-inkscape-font-specification:'Liberation Sans Bold';text-align:end;letter-spacing:0px;word-spacing:0px;text-anchor:end;fill:#ffffff;fill-opacity:1;stroke:none;stroke-width:0.60677087px;stroke-linecap:butt;stroke-linejoin:miter;stroke-opacity:1"
       x="284.93307"
       y="395.14703"
       id="text823"><tspan
         sodipodi:role="line"
         id="tspan821"
         x="284.93307"
         y="395.14703"
         style="fill:#ffffff;fill-opacity:1;stroke-width:0.60677087px">Garmin G5 Simulation</tspan></text>
    <g
       id="g1688"
       transform="matrix(0.25348874,0,0,0.25348874,89.201067,208.9146)">
      <path
         id="path1011"
         style="color:#000000;font-style:normal;font-variant:normal;font-weight:normal;font-stretch:normal;font-size:medium;line-height:normal;font-family:sans-serif;font-variant-ligatures:normal;font-variant-position:normal;font-variant-caps:normal;font-variant-numeric:normal;font-variant-alternates:normal;font-feature-settings:normal;text-indent:0;text-align:start;text-decoration:none;text-decoration-line:none;text-decoration-style:solid;text-decoration-color:#000000;letter-spacing:normal;word-spacing:normal;text-transform:none;writing-mode:lr-tb;direction:ltr;text-orientation:mixed;dominant-baseline:auto;baseline-shift:baseline;text-anchor:start;white-space:normal;shape-padding:0;clip-rule:nonzero;display:inline;overflow:visible;visibility:visible;opacity:1;isolation:auto;mix-blend-mode:normal;color-interpolation:sRGB;color-interpolation-filters:linearRGB;solid-color:#000000;solid-opacity:1;vector-effect:none;fill:#ffff44;fill-opacity:1;fill-rule:nonzero;stroke:none;stroke-width:37.09165573;stroke-linecap:butt;stroke-linejoin:miter;stroke-miterlimit:4;stroke-dasharray:37.09165688;stroke-dashoffset:0;stroke-opacity:1;color-rendering:auto;image-rendering:auto;shape-rendering:auto;text-rendering:auto;enable-background:accumulate"
         d="m 134.65563,309.97758 v 37.0918 h 37.09375 v -37.0918 z m 37.09375,37.0918 v 37.09375 h 37.0918 v -37.09375 z m 37.0918,0 h 37.0918 v -37.0918 h -37.0918 z m 0,37.09375 v 37.09179 h 37.0918 v -37.09179 z m 0,37.09179 h -37.0918 v 37.0918 h 37.0918 z m 0,37.0918 v 37.09375 h 37.0918 v -37.09375 z m 0,37.09375 h -37.0918 v 37.0918 h 37.0918 z m 0,37.0918 v 37.09375 h 37.0918 v -37.09375 z m 0,37.09375 h -37.0918 v 37.09179 h 37.0918 z m -37.0918,0 v -37.09375 h -37.09375 v 37.09375 z m 0,-74.18555 v -37.09375 h -37.09375 v 37.09375 z m 0,-74.18555 v -37.09179 h -37.09375 v 37.09179 z"
         inkscape:connector-curvature="0" />
      <path
         id="rect1017"
         style="fill:#4477bb;fill-opacity:1;stroke-width:0.61819428"
         d="m 282.40954,347.07135 c -0.57793,0 -1.13491,0.0879 -1.6582,0.25 -0.52329,0.16208 -1.01318,0.39985 -1.45703,0.69923 -0.8877,0.59872 -1.59248,1.44617 -2.01368,2.44531 -0.21059,0.49955 -0.34946,1.03713 -0.40625,1.5996 -0.0189,0.18749 -0.0293,0.37767 -0.0293,0.57031 v 28.4375 182.98438 c 0,3.08231 2.48213,5.56445 5.56445,5.56445 h 38.32813 c 3.08231,0 5.5625,-2.48214 5.5625,-5.56445 v -99.5293 h 74.80273 c 3.08232,0 5.5625,-2.48018 5.5625,-5.5625 v -25.96484 c 0,-3.08232 -2.48018,-5.56446 -5.5625,-5.56446 H 326.30016 V 386.6358 h 80.98437 c 3.08232,0 5.5625,-2.48018 5.5625,-5.5625 v -28.4375 c 0,-3.08231 -2.48018,-5.56445 -5.5625,-5.56445 h -86.54687 z"
         inkscape:connector-curvature="0" />
    </g>
  </g>
</svg>
